<svg width="180" height="52" viewBox="0 0 180 52" fill="none" xmlns="http://www.w3.org/2000/svg" class="max-w-full"><path d="M172.371 0H6.62963C2.96818 0 0 2.91014 0 6.5V45.5C0 49.0898 2.96818 52 6.62963 52H172.371C176.032 52 179 49.0898 179 45.5V6.5C179 2.91014 176.032 0 172.371 0Z" fill="black"></path><path d="M173.334 1.04C174.819 1.04 176.243 1.61524 177.293 2.63919C178.344 3.66314 178.933 5.05191 178.933 6.5V45.5C178.933 46.948 178.344 48.3369 177.293 49.3609C176.243 50.3846 174.819 50.96 173.334 50.96H6.66668C5.18145 50.96 3.75708 50.3846 2.70687 49.3609C1.65667 48.3369 1.06667 46.948 1.06667 45.5V6.5C1.06667 5.05191 1.65667 3.66314 2.70687 2.63919C3.75708 1.61524 5.18145 1.04 6.66668 1.04H173.334ZM173.334 0H6.66668C4.89856 0 3.20285 0.684818 1.95263 1.90381C0.70238 3.1228 0 4.77609 0 6.5V45.5C0 47.224 0.70238 48.8772 1.95263 50.0963C3.20285 51.3151 4.89856 52 6.66668 52H173.334C175.101 52 176.798 51.3151 178.047 50.0963C179.298 48.8772 180 47.224 180 45.5V6.5C180 4.77609 179.298 3.1228 178.047 1.90381C176.798 0.684818 175.101 0 173.334 0Z" fill="#A6A6A6"></path><path d="M91.4789 29.0075C90.4713 29.0099 89.4873 29.3109 88.6507 29.8726C87.8143 30.4343 87.1634 31.2314 86.7799 32.1631C86.3967 33.0948 86.2982 34.1193 86.4972 35.1068C86.6959 36.0945 87.1832 37.001 87.8973 37.7117C88.6113 38.4226 89.5201 38.9054 90.5087 39.0999C91.4973 39.294 92.5212 39.1907 93.4512 38.803C94.3809 38.4152 95.1751 37.7606 95.7329 36.9215C96.2908 36.0826 96.5871 35.0968 96.5845 34.0896C96.5944 33.4174 96.4688 32.7503 96.2155 32.1277C95.9619 31.5051 95.5858 30.94 95.1094 30.4657C94.6331 29.9916 94.0662 29.6181 93.4425 29.3676C92.8187 29.1171 92.1508 28.9946 91.4789 29.0075ZM91.4789 37.1745C90.8613 37.2175 90.2452 37.0743 89.7103 36.7624C89.1754 36.4508 88.7469 35.9855 88.4797 35.4268C88.2131 34.8682 88.1203 34.2424 88.214 33.6305C88.3076 33.0186 88.583 32.4489 89.0047 31.9958C89.4264 31.5424 89.9746 31.2266 90.578 31.089C91.1817 30.9515 91.8126 30.9987 92.3891 31.2245C92.9653 31.4504 93.4603 31.8444 93.8098 32.3552C94.1593 32.8664 94.3473 33.4703 94.3487 34.0896C94.3679 34.4816 94.3085 34.8738 94.1738 35.2426C94.0391 35.6117 93.8319 35.9499 93.5644 36.2371C93.297 36.5247 92.9746 36.7559 92.6163 36.9169C92.2583 37.0777 91.8714 37.1654 91.4789 37.1745ZM80.3344 29.0075C79.3269 29.0099 78.3428 29.3109 77.5062 29.8726C76.6702 30.4343 76.019 31.2314 75.6358 32.1631C75.2523 33.0948 75.1538 34.1193 75.3527 35.1068C75.5514 36.0945 76.0388 37.001 76.7528 37.7117C77.4669 38.4226 78.3757 38.9054 79.3643 39.0999C80.3528 39.294 81.3768 39.1907 82.3068 38.803C83.2365 38.4152 84.0307 37.7606 84.5885 36.9215C85.1463 36.0826 85.4426 35.0968 85.4401 34.0896C85.45 33.4174 85.3243 32.7503 85.071 32.1277C84.8175 31.5051 84.4413 30.94 83.965 30.4657C83.4887 29.9916 82.9218 29.6181 82.298 29.3676C81.6742 29.1171 81.0063 28.9946 80.3344 29.0075ZM80.3344 37.1745C79.7169 37.2175 79.1008 37.0743 78.5659 36.7624C78.0309 36.4508 77.6025 35.9855 77.3353 35.4268C77.0687 34.8682 76.9759 34.2424 77.0695 33.6305C77.1632 33.0186 77.4386 32.4489 77.8603 31.9958C78.282 31.5424 78.8302 31.2266 79.4336 31.089C80.0373 30.9515 80.6681 30.9987 81.2446 31.2245C81.8209 31.4504 82.3159 31.8444 82.6657 32.3552C83.0149 32.8664 83.2028 33.4703 83.2042 34.0896C83.2235 34.4816 83.1641 34.8738 83.0293 35.2426C82.8946 35.6117 82.6875 35.9499 82.42 36.2371C82.1526 36.5247 81.8302 36.7559 81.4719 36.9169C81.1139 37.0777 80.727 37.1654 80.3344 37.1745ZM67.0855 30.5739V32.7263H72.2511C72.1702 33.7401 71.7488 34.6967 71.0554 35.4407C70.5372 35.9685 69.914 36.3818 69.2259 36.6537C68.5379 36.9257 67.8007 37.0502 67.0614 37.0191C65.5393 37.0191 64.0792 36.4143 63.0029 35.338C61.9266 34.2617 61.3218 32.8016 61.3218 31.2794C61.3218 29.7572 61.9266 28.2973 63.0029 27.2209C64.0792 26.1445 65.5393 25.5398 67.0614 25.5398C68.5209 25.5181 69.9298 26.0723 70.9835 27.0823L72.5022 25.5637C71.7895 24.8588 70.9433 24.3033 70.013 23.9296C69.083 23.5559 68.0876 23.3715 67.0855 23.3875C66.0225 23.3461 64.962 23.5197 63.9677 23.898C62.9735 24.2763 62.0656 24.8514 61.2989 25.5889C60.5322 26.3263 59.9223 27.211 59.5057 28.1898C59.0891 29.1686 58.874 30.2215 58.874 31.2855C58.874 32.3493 59.0891 33.4021 59.5057 34.3811C59.9223 35.3598 60.5322 36.2445 61.2989 36.982C62.0656 37.7196 62.9735 38.2947 63.9677 38.6728C64.962 39.0512 66.0225 39.2247 67.0855 39.1834C68.1083 39.2241 69.1283 39.0484 70.0784 38.6671C71.0282 38.2856 71.8869 37.7077 72.5978 36.9713C73.8536 35.5918 74.5226 33.7777 74.4632 31.9132C74.4675 31.4643 74.4315 31.0163 74.3557 30.5739H67.0855ZM121.265 32.248C120.954 31.3307 120.37 30.5294 119.593 29.9508C118.816 29.3721 117.881 29.0432 116.913 29.0075C116.258 29.0063 115.611 29.1391 115.01 29.3979C114.409 29.6568 113.868 30.036 113.42 30.5124C112.972 30.9887 112.626 31.5518 112.404 32.1673C112.182 32.7823 112.089 33.4367 112.129 34.0896C112.119 35.1809 112.462 36.2465 113.108 37.1269C113.753 38.0074 114.666 38.6555 115.71 38.9742C116.754 39.2932 117.873 39.2657 118.9 38.8961C119.927 38.5265 120.807 37.8345 121.409 36.9234L119.675 35.7277C119.416 36.1585 119.05 36.5142 118.611 36.7596C118.173 37.005 117.678 37.1315 117.176 37.1267C116.657 37.1482 116.145 37.0123 115.705 36.7369C115.265 36.4616 114.92 36.0597 114.713 35.5842L121.516 32.7741L121.265 32.248ZM114.33 33.9461C114.305 33.5745 114.355 33.202 114.477 32.8502C114.598 32.4985 114.789 32.1744 115.037 31.897C115.286 31.6197 115.587 31.395 115.923 31.2355C116.26 31.0759 116.624 30.9853 116.996 30.9685C117.382 30.945 117.766 31.0357 118.099 31.2293C118.433 31.4227 118.702 31.7105 118.874 32.0567L114.33 33.9461ZM108.805 38.8726H111.041V23.9255H108.805V38.8726ZM105.146 30.1435H105.063C104.729 29.7631 104.316 29.4593 103.854 29.2529C103.392 29.0465 102.89 28.9424 102.384 28.9477C101.077 29.0111 99.8452 29.5748 98.9426 30.522C98.0404 31.4694 97.5369 32.7274 97.5369 34.0358C97.5369 35.3439 98.0404 36.6022 98.9426 37.5492C99.8452 38.4965 101.077 39.0602 102.384 39.1236C102.891 39.1338 103.394 39.0319 103.857 38.8251C104.32 38.6185 104.732 38.3119 105.063 37.9279H105.146V38.6572C105.146 40.6064 104.106 41.6468 102.432 41.6468C101.873 41.6343 101.33 41.456 100.872 41.1348C100.414 40.8133 100.062 40.363 99.861 39.8411L97.9238 40.6423C98.2821 41.5418 98.9047 42.3113 99.7096 42.8493C100.515 43.3873 101.464 43.6684 102.432 43.6556C105.05 43.6556 107.215 42.1129 107.215 38.3584V29.3064H105.146V30.1435ZM102.575 37.1745C101.792 37.1255 101.057 36.78 100.519 36.208C99.9816 35.6357 99.6822 34.8803 99.6822 34.0955C99.6822 33.3104 99.9816 32.5551 100.519 31.9831C101.057 31.4108 101.792 31.0652 102.575 31.0164C102.958 31.0329 103.334 31.1263 103.68 31.291C104.026 31.4558 104.336 31.6882 104.59 31.9749C104.844 32.2618 105.039 32.5967 105.161 32.9601C105.283 33.3232 105.331 33.7072 105.302 34.0896C105.334 34.4728 105.289 34.8591 105.168 35.2245C105.047 35.5899 104.853 35.9269 104.598 36.2153C104.344 36.5037 104.033 36.7375 103.685 36.9022C103.338 37.0672 102.96 37.1598 102.575 37.1745ZM131.74 23.9255H126.383V38.8726H128.619V33.2046H131.74C132.377 33.2504 133.017 33.1644 133.619 32.9521C134.222 32.7396 134.775 32.4053 135.242 31.9701C135.71 31.5348 136.083 31.0077 136.338 30.4219C136.593 29.8361 136.725 29.204 136.725 28.5651C136.725 27.9261 136.593 27.2941 136.338 26.7083C136.083 26.1225 135.71 25.5954 135.242 25.1602C134.775 24.7249 134.222 24.3906 133.619 24.1782C133.017 23.9658 132.377 23.8798 131.74 23.9255ZM131.74 31.1001H128.619V26.0061H131.788C132.124 26.0061 132.457 26.0724 132.767 26.2009C133.078 26.3295 133.359 26.518 133.597 26.7556C133.835 26.9932 134.024 27.2753 134.152 27.5858C134.281 27.8963 134.347 28.229 134.347 28.5651C134.347 28.9011 134.281 29.2339 134.152 29.5443C134.024 29.8548 133.835 30.1369 133.597 30.3745C133.359 30.6121 133.078 30.8006 132.767 30.9292C132.457 31.0579 132.124 31.124 131.788 31.124L131.74 31.1001ZM145.539 28.9597C144.724 28.9094 143.913 29.099 143.206 29.5049C142.498 29.9109 141.925 30.5153 141.557 31.2435L143.531 32.0685C143.729 31.7091 144.029 31.4153 144.392 31.222C144.754 31.0289 145.165 30.945 145.575 30.9805C145.859 30.9473 146.147 30.971 146.421 31.0503C146.696 31.1294 146.951 31.2625 147.174 31.4417C147.396 31.6208 147.581 31.8427 147.718 32.094C147.854 32.3453 147.938 32.6213 147.966 32.9057V33.0492C147.247 32.6711 146.447 32.4741 145.635 32.4752C143.507 32.4752 141.33 33.671 141.33 35.8471C141.351 36.3099 141.465 36.7633 141.664 37.1813C141.864 37.5987 142.145 37.9723 142.493 38.2788C142.84 38.5856 143.244 38.8197 143.683 38.9666C144.123 39.114 144.587 39.1712 145.049 39.1355C145.61 39.1667 146.169 39.0478 146.669 38.7914C147.169 38.5352 147.592 38.1503 147.894 37.6768H147.966V38.8726H150.119V33.1208C150.119 30.5022 148.134 28.9836 145.587 28.9836L145.539 28.9597ZM145.264 37.1507C144.535 37.1507 143.518 36.78 143.518 35.8831C143.518 34.6873 144.785 34.2809 145.91 34.2809C146.62 34.2634 147.322 34.4368 147.942 34.783C147.868 35.4322 147.56 36.0325 147.075 36.4723C146.592 36.9118 145.966 37.1615 145.312 37.1745L145.264 37.1507ZM157.963 29.3064L155.404 35.7874H155.332L152.677 29.3064H150.286L154.268 38.3702L151.997 43.4043H154.328L160.45 29.3064H157.963ZM137.874 38.8726H140.098V23.9255H137.874V38.8726Z" fill="white"></path><path d="M22.4841 12.0162C22.0901 12.4821 21.889 13.081 21.9221 13.6903V40.1403C21.8814 40.7507 22.0834 41.3524 22.4841 41.8143L22.5678 41.91L37.3832 27.0947V26.736L22.5678 11.9325L22.4841 12.0162Z" fill="url(#paint0_linear_279_3410)"></path><path d="M42.2851 32.0329L37.3826 27.0944V26.7357L42.2851 21.7972L42.3929 21.869L48.2639 25.1932C49.9379 26.1378 49.9379 27.6923 48.2639 28.6489L42.4167 31.9732L42.2851 32.0329Z" fill="url(#paint1_linear_279_3410)"></path><path d="M42.4286 31.9613L37.3826 26.915L22.4835 41.814C22.8214 42.1148 23.2539 42.288 23.706 42.3033C24.1581 42.3186 24.6013 42.1751 24.9587 41.8978L42.4286 31.9613Z" fill="url(#paint2_linear_279_3410)"></path><path d="M42.4286 21.8689L24.9587 11.9442C24.6035 11.663 24.1607 11.5161 23.708 11.5292C23.2553 11.5424 22.8217 11.7147 22.4835 12.0159L37.3826 26.9149L42.4286 21.8689Z" fill="url(#paint3_linear_279_3410)"></path><path opacity="0.2" d="M42.2851 31.8529L24.9587 41.7181C24.6143 41.9779 24.1945 42.1186 23.763 42.1186C23.3314 42.1186 22.9116 41.9779 22.5672 41.7181L22.4835 41.8016L22.5672 41.8972C22.9116 42.1573 23.3314 42.2977 23.763 42.2977C24.1945 42.2977 24.6143 42.1573 24.9587 41.8972L42.4286 31.9607L42.2851 31.8529Z" fill="black"></path><path opacity="0.12" d="M22.4834 41.6471C22.0993 41.1728 21.9111 40.5697 21.9572 39.9612V40.1403C21.9165 40.7508 22.1185 41.3525 22.5193 41.8144L22.6029 41.7309L22.4834 41.6471Z" fill="black"></path><path opacity="0.12" d="M48.2639 28.4695L42.2851 31.8534L42.3926 31.9613L48.2639 28.6369C48.6106 28.4904 48.9111 28.2532 49.1342 27.95C49.3572 27.647 49.4944 27.2895 49.5315 26.915C49.4568 27.2554 49.3031 27.5732 49.0829 27.8433C48.8627 28.1133 48.5823 28.3278 48.2639 28.4695Z" fill="black"></path><path opacity="0.25" d="M24.9591 12.112L48.2644 25.3609C48.5825 25.5027 48.863 25.7172 49.0832 25.9872C49.3034 26.2571 49.4571 26.5751 49.5318 26.9154C49.4947 26.5409 49.3577 26.1834 49.1344 25.8803C48.9114 25.5773 48.6108 25.3401 48.2644 25.1935L24.9591 11.9445C23.297 10.9879 21.9219 11.7771 21.9219 13.6904V13.8698C21.9578 11.9565 23.297 11.1673 24.9591 12.112Z" fill="white"></path><path d="M60.353 20.0632H59.4802V17.6717H60.2217C60.5551 17.3096 60.8058 16.8793 60.9567 16.4107C61.1075 15.9419 61.1545 15.446 61.0945 14.9573V11.3701H65.8775V17.6597H66.6787V20.0512H65.7937V18.5446H60.353V20.0632ZM62.0152 14.9573C62.0687 15.9179 61.8309 16.8722 61.3337 17.6956H64.9209V12.255H62.0152V14.9573Z" fill="white" stroke="white" stroke-width="0.845" stroke-miterlimit="10"></path><path d="M73.8652 17.612C73.5208 17.9573 73.1118 18.2312 72.6613 18.4182C72.211 18.605 71.7281 18.7013 71.2405 18.7013C70.7529 18.7013 70.27 18.605 69.8197 18.4182C69.3692 18.2312 68.9602 17.9573 68.6158 17.612C67.9317 16.8976 67.5499 15.9466 67.5499 14.9575C67.5499 13.9683 67.9317 13.0174 68.6158 12.3029C68.9602 11.9576 69.3692 11.6837 69.8197 11.4968C70.27 11.3098 70.7529 11.2136 71.2405 11.2136C71.7281 11.2136 72.211 11.3098 72.6613 11.4968C73.1118 11.6837 73.5208 11.9576 73.8652 12.3029C74.2105 12.652 74.4828 13.0668 74.6653 13.5227C74.8481 13.9785 74.9379 14.4664 74.9294 14.9575C74.9435 15.4493 74.8563 15.9387 74.6732 16.3954C74.4901 16.8521 74.215 17.2662 73.8652 17.612ZM69.2854 17.0142C69.5373 17.2759 69.8404 17.483 70.1758 17.6228C70.5109 17.7627 70.8712 17.8323 71.2346 17.8273C71.5979 17.8345 71.9591 17.7659 72.2947 17.6259C72.6304 17.4859 72.9329 17.2775 73.1837 17.0142C73.6996 16.4535 73.9861 15.7194 73.9861 14.9575C73.9861 14.1955 73.6996 13.4614 73.1837 12.9008C72.9329 12.6373 72.6304 12.429 72.2947 12.289C71.9591 12.149 71.5979 12.0805 71.2346 12.0876C70.8712 12.0826 70.5109 12.1522 70.1758 12.292C69.8404 12.4319 69.5373 12.6391 69.2854 12.9008C68.7771 13.4652 68.4958 14.1979 68.4958 14.9575C68.4958 15.717 68.7771 16.4498 69.2854 17.0142Z" fill="white" stroke="white" stroke-width="0.845" stroke-miterlimit="10"></path><path d="M79.5691 18.6996C79.0852 18.7072 78.6049 18.6169 78.1569 18.434C77.7088 18.2511 77.3024 17.9795 76.9622 17.6354C76.2722 16.9144 75.8873 15.9549 75.8873 14.9569C75.8873 13.959 76.2722 12.9995 76.9622 12.2785C77.3081 11.9285 77.7221 11.6535 78.1789 11.4704C78.6357 11.2873 79.1251 11.2001 79.6169 11.2143C80.1173 11.2001 80.6146 11.3005 81.0705 11.5077C81.5265 11.7149 81.9289 12.0235 82.2476 12.41L81.6136 13.0318C81.379 12.7298 81.0748 12.4885 80.7275 12.3283C80.38 12.1681 79.999 12.0936 79.6169 12.1111C79.2487 12.1017 78.8828 12.1679 78.5412 12.3057C78.1999 12.4435 77.8903 12.65 77.6319 12.9122C77.1168 13.478 76.8315 14.2158 76.8315 14.9808C76.8315 15.746 77.1168 16.4837 77.6319 17.0495C77.8903 17.3118 78.1999 17.5182 78.5412 17.656C78.8828 17.7939 79.2487 17.8601 79.6169 17.8506C80.0276 17.839 80.4312 17.7377 80.7986 17.5539C81.1665 17.3701 81.4894 17.1081 81.7452 16.7865L82.3911 17.4202C82.0634 17.8128 81.6558 18.1308 81.1953 18.3529C80.6865 18.5905 80.1303 18.7092 79.5691 18.6996Z" fill="white" stroke="white" stroke-width="0.845" stroke-miterlimit="10"></path><path d="M86.146 18.5446H85.2253V12.255H83.2164V11.3701H88.1429V12.255H86.146V18.5446Z" fill="white" stroke="white" stroke-width="0.845" stroke-miterlimit="10"></path><path d="M94.48 11.3701L91.7656 17.4206C91.6996 17.6633 91.5819 17.8886 91.4203 18.0812C91.2587 18.2737 91.0572 18.4288 90.8296 18.5358C90.6024 18.6427 90.3541 18.6988 90.1028 18.7004C89.8515 18.7019 89.603 18.6488 89.3741 18.5446L89.6132 17.6956C89.7595 17.7779 89.9237 17.8231 90.0915 17.8271C90.2684 17.8361 90.4439 17.7901 90.5939 17.6956C90.7391 17.5748 90.8503 17.4182 90.9165 17.2412L91.1797 16.6673L88.7882 11.3701H89.8764L91.6461 15.4835L93.3918 11.3701H94.48Z" fill="white" stroke="white" stroke-width="0.845" stroke-miterlimit="10"></path><path d="M95.5204 18.5446V11.3701H100.71V18.5446H99.7892V12.255H96.441V18.5446H95.5204Z" fill="white" stroke="white" stroke-width="0.845" stroke-miterlimit="10"></path><path d="M102.348 18.5446V11.3701H103.269V14.4432H106.856V11.3701H107.789V18.5446H106.856V15.3041H103.269V18.5446H102.348Z" fill="white" stroke="white" stroke-width="0.845" stroke-miterlimit="10"></path><path d="M115.298 17.612C114.953 17.9577 114.542 18.2319 114.091 18.4189C113.64 18.6061 113.156 18.7024 112.667 18.7024C112.179 18.7024 111.695 18.6061 111.243 18.4189C110.792 18.2319 110.382 17.9577 110.037 17.612C109.353 16.8976 108.971 15.9466 108.971 14.9575C108.971 13.9683 109.353 13.0174 110.037 12.3029C110.381 11.9576 110.79 11.6837 111.24 11.4968C111.691 11.3098 112.174 11.2136 112.661 11.2136C113.149 11.2136 113.632 11.3098 114.082 11.4968C114.533 11.6837 114.941 11.9576 115.286 12.3029C115.965 13.0201 116.343 13.9701 116.343 14.9575C116.343 15.9449 115.965 16.8948 115.286 17.612H115.298ZM110.718 17.0142C110.969 17.2775 111.272 17.4859 111.607 17.6259C111.943 17.7659 112.304 17.8345 112.667 17.8273C113.03 17.8323 113.391 17.7627 113.726 17.6229C114.062 17.483 114.364 17.2759 114.616 17.0142C115.124 16.4498 115.406 15.717 115.406 14.9575C115.406 14.1979 115.124 13.4652 114.616 12.9008C114.364 12.6391 114.062 12.4319 113.726 12.292C113.391 12.1522 113.03 12.0826 112.667 12.0876C112.304 12.0805 111.943 12.149 111.607 12.289C111.272 12.429 110.969 12.6374 110.718 12.9008C110.202 13.4614 109.916 14.1955 109.916 14.9575C109.916 15.7194 110.202 16.4535 110.718 17.0142Z" fill="white" stroke="white" stroke-width="0.845" stroke-miterlimit="10"></path><path d="M120.118 18.5448V11.3702H122.712C123.25 11.3648 123.77 11.5611 124.171 11.9203C124.37 12.0937 124.53 12.3089 124.638 12.5506C124.745 12.7924 124.798 13.0548 124.793 13.3193C124.796 13.6414 124.704 13.9574 124.53 14.2281C124.353 14.4848 124.108 14.6876 123.825 14.8141C124.17 14.9321 124.472 15.1481 124.697 15.4358C124.916 15.7289 125.035 16.0859 125.032 16.4522C125.038 16.7279 124.983 17.0015 124.872 17.2536C124.76 17.5057 124.594 17.7301 124.386 17.911C123.971 18.2972 123.422 18.5073 122.855 18.497L120.118 18.5448ZM121.038 14.4434H122.712C122.869 14.4524 123.025 14.4259 123.171 14.3658C123.315 14.3058 123.445 14.2137 123.549 14.0966C123.752 13.8979 123.868 13.6271 123.873 13.3432C123.883 13.0585 123.785 12.7803 123.597 12.566C123.496 12.4545 123.372 12.3666 123.234 12.3087C123.096 12.2508 122.946 12.2243 122.796 12.2312H121.074L121.038 14.4434ZM121.038 17.66H122.903C123.066 17.6654 123.227 17.6349 123.375 17.5708C123.524 17.5068 123.657 17.4106 123.764 17.2893C123.971 17.0687 124.087 16.7782 124.088 16.4761C124.08 16.1765 123.961 15.8907 123.753 15.675C123.637 15.5539 123.498 15.4584 123.343 15.3946C123.189 15.3307 123.023 15.2999 122.855 15.3043H121.038V17.66Z" fill="white" stroke="white" stroke-width="0.845" stroke-miterlimit="10"></path><defs><linearGradient id="paint0_linear_279_3410" x1="36.0678" y1="13.4153" x2="16.0031" y2="33.48" gradientUnits="userSpaceOnUse"><stop stop-color="#00A0FF"></stop><stop offset="0.01" stop-color="#00A1FF"></stop><stop offset="0.26" stop-color="#00BEFF"></stop><stop offset="0.51" stop-color="#00D2FF"></stop><stop offset="0.76" stop-color="#00DFFF"></stop><stop offset="1" stop-color="#00E3FF"></stop></linearGradient><linearGradient id="paint1_linear_279_3410" x1="50.4522" y1="26.9151" x2="21.5269" y2="26.9151" gradientUnits="userSpaceOnUse"><stop stop-color="#FFE000"></stop><stop offset="0.41" stop-color="#FFBD00"></stop><stop offset="0.78" stop-color="#FFA500"></stop><stop offset="1" stop-color="#FF9C00"></stop></linearGradient><linearGradient id="paint2_linear_279_3410" x1="39.6904" y1="29.6653" x2="12.475" y2="56.8686" gradientUnits="userSpaceOnUse"><stop stop-color="#FF3A44"></stop><stop offset="1" stop-color="#C31162"></stop></linearGradient><linearGradient id="paint3_linear_279_3410" x1="18.7288" y1="3.21514" x2="30.8777" y2="15.364" gradientUnits="userSpaceOnUse"><stop stop-color="#32A071"></stop><stop offset="0.07" stop-color="#2DA771"></stop><stop offset="0.48" stop-color="#15CF74"></stop><stop offset="0.8" stop-color="#06E775"></stop><stop offset="1" stop-color="#00F076"></stop></linearGradient></defs></svg>